<svg enable-background="new 0 0 595.3 841.9" viewBox="234.9 355.5 90 61" xmlns="http://www.w3.org/2000/svg"><g fill="#fff"><path d="m316 393.5 5.3-2.3-6-2.6-1.1-.5 1.1-.5 6-2.6-6-2.6-1.1-.5 1.1-.5 6-2.6-6-2.6-.9-.4.9-.4 6-2.6-6-2.6-34.3-14.3-1.1-.4-1.1.5-34.4 14.6-6 2.6 6 2.6.9.4-.9.4-6 2.6 6 2.6 1.1.5-1.1.5-6 2.6 6 2.6 1.1.5-1.1.5-6 2.6 5.3 2.3-8.8 3.4 9 3.8 34.4 14.7 1.6.7 1.6-.7 34.4-14.7 9-3.8zm-36.1-35 34.4 14.7-34.4 14.7-34.4-14.7zm-34.4 20.6 3.4-1.4 29.9 12.8 1.1.5 1.1-.5 29.9-12.9 3.4 1.4-34.4 14.8zm0 6.1 3.6-1.5 29.7 12.7 1.1.5 1.1-.5 29.7-12.7 3.6 1.5-34.4 14.6zm34.4 26.8-34.4-14.7 3.6-1.5 29.7 12.7 1.1.5 1.1-.5 29.7-12.7 3.6 1.5zm32.6-20-5.3 2.3-27.3 11.6-27.3-11.6-5.3-2.3-1.8-.8 3.6-1.5 29.7 12.7 1.1.5 1.1-.5 29.7-12.7 3.6 1.5z"/><path d="m289.2 367.5-22.6 9.7 2.6 1.1 22.6-9.7z"/><path d="m294.6 369.7-22.7 9.8 2.7 1.1 22.6-9.7z"/><path d="m299.9 372-22.6 9.8 2.6 1.1 22.6-9.8z"/><path d="m278.5 362.9-22.6 9.8 2.6 1.1 22.6-9.8z"/><path d="m283.9 365.2-22.7 9.8 2.7 1.1 22.6-9.8z"/></g></svg>