<svg enable-background="new 0 0 595.3 841.9" viewBox="103.8 375.5 90.03 86.7" xmlns="http://www.w3.org/2000/svg"><g fill="#fff"><path d="m177.3 396.6-.9.9c.3-.3.6-.7.7-1.2z"/><path d="m177.3 396.6-.9.9c.3-.3.6-.7.7-1.2z"/><path d="m193 394.4-8.7-8.8c-.5-.5-1.2-.8-2-.8s-1.4.3-2 .8l-7.9 7.9-2.1 2.1v-17.3c0-1.5-1.3-2.8-2.8-2.8h-60.9c-1.6 0-2.8 1.3-2.8 2.8v81.1c0 1.5 1.2 2.8 2.8 2.8h60.9c1.5 0 2.8-1.3 2.8-2.8v-38.4l22.7-22.7c1.1-1.1 1.1-2.8 0-3.9zm-28.3 62.2h-55.2v-75.5h55.2v20.1l-15.8 15.8h-29.2c-1 0-1.9.8-1.9 1.9 0 1 .8 1.9 1.9 1.9h25.4l-3.4 3.4c-.2.2-.5.5-.6.9l-1.6 3.8h-19.9c-1 0-1.9.8-1.9 1.9 0 1 .8 1.9 1.9 1.9h18.4l-3.3 7.8c0 .1-.1.1-.1.2h-14.8c-1 0-1.9.8-1.9 1.9 0 1 .8 1.9 1.9 1.9h17.3c.2 0 .4 0 .5-.1.2 0 .5-.1.7-.2l15.3-6.5c.3-.1.6-.3.9-.6l10.2-10.2zm-16.1-23.1-5.9 2.6 2.6-6zm16.9-15.6-13.6 13.6-4.8-4.8 22.4-22.4 5.2-5.1 4.8 4.8zm16.6-16.6-4.8-4.8-.9.9c.3-.3.6-.7.7-1.2l.2.2 5-5 4.8 4.8z"/><path d="m154.4 397.3h-34.7c-1 0-1.9-.8-1.9-1.9 0-1 .8-1.9 1.9-1.9h34.7c1 0 1.9.8 1.9 1.9 0 1-.8 1.9-1.9 1.9z"/><path d="m154.4 409h-34.7c-1 0-1.9-.8-1.9-1.9s.8-1.9 1.9-1.9h34.7c1 0 1.9.8 1.9 1.9s-.8 1.9-1.9 1.9z"/></g></svg>