<svg enable-background="new 0 0 595.3 841.9" viewBox="270.7 391.3 51.9 59" xmlns="http://www.w3.org/2000/svg"><path d="m307.3 438.3h-21.5c-.1 0-.3-.1-.3-.3 0-.1.1-.3.3-.3h21.5c.1 0 .3.1.3.3 0 .1-.1.3-.3.3z" fill="none" stroke="#fff" stroke-miterlimit="10" stroke-width="2"/><path d="m315.4 402.2h-3.1v-9.9h-31.3v9.9h-3.1c-3.4 0-6.2 2.8-6.2 6.2v19.4c0 3.4 2.8 6.2 6.2 6.2h3.1v15.3h31.3v-15.3h3.1c3.4 0 6.2-2.8 6.2-6.2v-19.4c0-3.4-2.8-6.2-6.2-6.2z" fill="none" stroke="#fff" stroke-miterlimit="10" stroke-width="2"/><circle cx="312.8" cy="411.5" fill="#fff" r="1.4"/><path d="m315.3 425.6h-37.5c-.5 0-1-.5-1-1v-.2c0-.5.5-1 1-1h37.5c.5 0 1 .5 1 1v.2c0 .6-.4 1-1 1z" fill="#fff"/><path d="m307.3 442.5h-21.5c-.1 0-.3-.1-.3-.3 0-.1.1-.3.3-.3h21.5c.1 0 .3.1.3.3 0 .1-.1.3-.3.3z" fill="none" stroke="#fff" stroke-miterlimit="10" stroke-width="2"/></svg>